<?xml version="1.0" standalone="no"?>
<!DOCTYPE svg PUBLIC "-//W3C//DTD SVG 20010904//EN"
 "http://www.w3.org/TR/2001/REC-SVG-20010904/DTD/svg10.dtd">
<svg version="1.0" xmlns="http://www.w3.org/2000/svg"
 width="1280.000000pt" height="1280.000000pt" viewBox="0 0 1280.000000 1280.000000"
 preserveAspectRatio="xMidYMid meet">
<metadata>
Created by potrace 1.15, written by Peter Selinger 2001-2017
</metadata>
<g transform="translate(0.000000,1280.000000) scale(0.100000,-0.100000)"
fill="#4caf50" stroke="none">
<path d="M6250 12333 c-410 -11 -864 -77 -1302 -189 -1093 -278 -1944 -762
-2737 -1555 -793 -793 -1277 -1644 -1555 -2737 -132 -516 -187 -947 -187
-1452 0 -505 55 -936 187 -1452 279 -1096 765 -1949 1565 -2747 785 -783 1642
-1269 2727 -1545 516 -132 947 -187 1452 -187 505 0 936 55 1452 187 1091 278
1945 763 2737 1555 870 870 1390 1852 1635 3089 124 623 142 1257 56 1875 -95
674 -326 1408 -625 1982 -503 966 -1377 1869 -2335 2410 -893 505 -2057 795
-3070 766z"/>
</g>
</svg>
