<?xml version="1.0" standalone="no"?>
<!DOCTYPE svg PUBLIC "-//W3C//DTD SVG 20010904//EN"
 "http://www.w3.org/TR/2001/REC-SVG-20010904/DTD/svg10.dtd">
<svg version="1.0" xmlns="http://www.w3.org/2000/svg"
 width="1252.000000pt" height="1280.000000pt" viewBox="0 0 1252.000000 1280.000000"
 preserveAspectRatio="xMidYMid meet">
<metadata>
Created by potrace 1.15, written by Peter Selinger 2001-2017
</metadata>
<g transform="translate(0.000000,1280.000000) scale(0.100000,-0.100000)"
fill="#ff5722" stroke="none">
<path d="M5905 11543 c-350 -19 -836 -111 -1199 -229 -878 -285 -1658 -804
-2258 -1503 -661 -769 -1074 -1740 -1173 -2756 -20 -202 -20 -757 0 -960 78
-809 352 -1586 799 -2264 188 -285 376 -512 640 -776 264 -264 473 -436 766
-632 576 -385 1304 -668 1975 -767 328 -49 357 -51 775 -51 412 0 427 1 740
46 467 67 970 223 1425 443 817 396 1499 995 1999 1758 382 583 643 1261 750
1948 46 293 51 375 51 780 -1 416 -9 529 -64 845 -176 1012 -660 1943 -1386
2670 -844 844 -1968 1358 -3160 1445 -127 9 -531 11 -680 3z"/>
</g>
</svg>
